<?xml version="1.0" standalone="no"?><!DOCTYPE svg PUBLIC "-//W3C//DTD SVG 1.1//EN" "http://www.w3.org/Graphics/SVG/1.1/DTD/svg11.dtd"><svg t="1494223137440" class="icon" style="" viewBox="0 0 1024 1024" version="1.1" xmlns="http://www.w3.org/2000/svg" p-id="3609" xmlns:xlink="http://www.w3.org/1999/xlink" width="32" height="32"><defs><style type="text/css"></style></defs><path d="M987.438545 182.853818l-182.853818 0L804.584727 109.707636C804.561455 49.221818 755.758545 0 695.714909 0L329.146182 0c-60.485818 0-109.707636 49.221818-109.707636 109.707636l0 73.146182L36.584727 182.853818C16.360727 182.853818 0 199.214545 0 219.415273 0 239.639273 16.360727 256 36.584727 256l950.853818 0C1007.662545 256 1024 239.639273 1024 219.415273 1024 199.214545 1007.662545 182.853818 987.438545 182.853818M841.169455 329.146182 182.853818 329.146182 182.923636 329.146182c-9.681455 0-19.013818 3.584-25.879273 10.379636-6.865455 6.865455-10.752 15.895273-10.752 25.623273l0 549.12c0 60.509091 49.314909 109.730909 109.800727 109.730909l512.069818 0c60.509091 0 109.544727-49.221818 109.544727-109.730909L877.707636 365.707636C877.707636 345.553455 861.323636 329.216 841.169455 329.146182M438.830545 841.169455c0 20.177455-16.337455 36.538182-36.538182 36.538182-20.247273 0-36.584727-16.360727-36.584727-36.538182L365.707636 438.853818c0-20.224 16.337455-36.584727 36.584727-36.584727 20.200727 0 36.538182 16.360727 36.538182 36.584727L438.830545 841.169455zM658.292364 841.169455c0 20.177455-16.337455 36.538182-36.584727 36.538182-20.200727 0-36.538182-16.360727-36.538182-36.538182L585.169455 438.853818c0-20.224 16.337455-36.584727 36.538182-36.584727 20.247273 0 36.584727 16.360727 36.584727 36.584727L658.292364 841.169455z" p-id="3610" fill="#d81e06"></path></svg>