<?xml version="1.0" standalone="no"?><!DOCTYPE svg PUBLIC "-//W3C//DTD SVG 1.1//EN" "http://www.w3.org/Graphics/SVG/1.1/DTD/svg11.dtd"><svg t="1502350501430" class="icon" style="" viewBox="0 0 1024 1024" version="1.1" xmlns="http://www.w3.org/2000/svg" p-id="9598" xmlns:xlink="http://www.w3.org/1999/xlink" width="16" height="16"><defs><style type="text/css"></style></defs><path d="M880.814392 562.062186 567.324538 562.062186l0 313.489854c0 30.531364-24.762987 55.326073-55.32505 55.326073-30.56104 0-55.324026-24.794709-55.324026-55.326073l0-313.489854-313.489854 0c-30.562063 0-55.32505-24.792663-55.32505-55.324026 0-30.592762 24.762987-55.32505 55.32505-55.32505l313.489854 0L456.675462 137.907906c0-30.562063 24.762987-55.32505 55.324026-55.32505 30.562063 0 55.32505 24.762987 55.32505 55.32505l0 313.50418L880.814392 451.412087c30.56104 0 55.324026 24.732288 55.324026 55.32505C936.138418 537.269523 911.375431 562.062186 880.814392 562.062186z" p-id="9599" fill="#ffffff"></path></svg>