<?xml version="1.0" standalone="no"?><!DOCTYPE svg PUBLIC "-//W3C//DTD SVG 1.1//EN" "http://www.w3.org/Graphics/SVG/1.1/DTD/svg11.dtd"><svg t="1494992474600" class="icon" style="" viewBox="0 0 1024 1024" version="1.1" xmlns="http://www.w3.org/2000/svg" p-id="2363" xmlns:xlink="http://www.w3.org/1999/xlink" width="32" height="32"><defs><style type="text/css"></style></defs><path d="M707.358726 0 208.84626 0c-49.401428 0-89.82333 40.421902-89.82333 89.82333L119.02293 458.107405c0.037894 0 0 476.069264 0 476.069264 0 49.401428 40.421902 89.82333 89.82333 89.82333l606.307479 0c49.407042 0 89.82333-40.421902 89.82333-89.82333l0-736.552712L707.358726 0 707.358726 0zM293.351769 615.820331l-41.380485 0 0 86.116714-55.920637 0L196.050646 455.887085l102.892625 0c59.642691 1.503137 90.591039 27.226293 92.828201 77.170872C392.505497 588.978594 359.704544 616.571198 293.351769 615.820331L293.351769 615.820331zM501.375584 701.937046 420.850372 701.937046 420.850372 455.887085l77.169469 0c88.721591 0.75227 133.825534 41.014175 135.327268 120.78852C636.318296 663.176875 592.332934 704.908233 501.375584 701.937046L501.375584 701.937046zM838.015181 501.741895l-120.787116 0 0 59.276381 105.129787 0 0 44.736229-105.129787 0 0 96.182541-55.920637 0L661.307427 455.887085l176.707753 0L838.015181 501.741895 838.015181 501.741895zM707.518724 196.022576l0-145.217659 145.210641 145.217659L707.518724 196.022576 707.518724 196.022576zM707.518724 196.022576" p-id="2364" fill="#1296db"></path><path d="M496.90126 501.741895l-19.013073 0 0 156.577503 19.013073 0c51.446312 0 77.170872-26.841737 77.170872-80.525212C572.568994 527.849607 546.845838 502.492762 496.90126 501.741895L496.90126 501.741895zM496.90126 501.741895" p-id="2365" fill="#1296db"></path><path d="M288.877444 498.387555l-36.906161 0 0 74.932306 36.906161 0c29.0789-0.734025 43.985362-13.420167 44.736229-38.024742C332.862806 511.440008 317.956344 499.138422 288.877444 498.387555L288.877444 498.387555zM288.877444 498.387555" p-id="2366" fill="#1296db"></path></svg>