<?xml version="1.0" standalone="no"?><!DOCTYPE svg PUBLIC "-//W3C//DTD SVG 1.1//EN" "http://www.w3.org/Graphics/SVG/1.1/DTD/svg11.dtd"><svg t="1494986861755" class="icon" style="" viewBox="0 0 1024 1024" version="1.1" xmlns="http://www.w3.org/2000/svg" p-id="5889" xmlns:xlink="http://www.w3.org/1999/xlink" width="32" height="32"><defs><style type="text/css"></style></defs><path d="M951.272545 295.04556 664.840447 10.763327C658.440847 4.363727 647.741516 0.063996 637.042185 0.063996L168.896444 0.063996c-29.92313 0-57.696394 12.7992-74.795325 29.898131C74.852322 49.260921 62.028123 74.859321 62.028123 104.857446l0 814.449097c0 29.898131 12.824198 57.696394 32.072995 72.695457 19.223799 19.1988 44.872195 31.998 74.795325 31.998l686.182114 0c29.948128 0 55.596525-10.699331 74.845322-29.898131 21.348666-19.1988 32.047997-46.997063 32.047997-74.795325l0-596.462721C961.971877 314.344353 959.822011 303.645022 951.272545 295.04556zM658.440847 119.756515l181.688644 181.688644 0 2.199863-138.941316 0c-10.699331 0-21.398663-4.299731-29.948128-12.7992l-2.149866-2.199863c-6.3996-8.499469-10.649334-19.1988-10.649334-29.898131L658.440847 119.756515zM887.389038 924.243735 887.389038 924.243735c0 8.599463-4.299731 15.074058-8.661959 19.423786-4.299731 4.349728-12.949191 8.699456-19.473783 8.699456L164.721705 952.366977c-8.649459 0-15.136554-4.349728-19.461284-8.699456-6.499594-4.349728-8.649459-12.949191-8.649459-19.423786l0-824.348478c0-6.487095 2.149866-13.061684 8.649459-17.311418 4.32473-6.574589 10.799325-8.699456 19.461284-8.699456l447.884507 0 0 181.776139c0 23.786013 10.824323 45.44716 25.960877 62.746078l0 2.124867c17.311418 15.186551 38.960065 26.010874 64.920942 26.010874l181.726142 0 2.174864 0L887.389038 924.243735 887.389038 924.243735zM344.585463 532.168239c-1.037435 0-2.049872 0.087495-3.049809 0.224986L211.156303 532.393225c-0.999938-0.137491-2.012374-0.224986-3.049809-0.224986-12.674208 0-22.948566 10.274358-22.948566 22.948566 0 12.674208 10.274358 22.948566 22.948566 22.948566 0.949941 0 1.874883-0.074995 2.799825-0.187488l37.335167 0 0 164.939691c-0.024998 0.499969-0.074995 0.999938-0.074995 1.499906 0 14.87407 12.061746 26.923317 26.923317 26.923317 14.87407 0 26.923317-12.061746 26.923317-26.923317 0-0.074995-0.012499-0.149991-0.012499-0.224986l0.012499 0L302.013124 577.890382l39.772514 0c0.924942 0.112493 1.849884 0.187488 2.799825 0.187488 12.674208 0 22.948566-10.274358 22.948566-22.948566C367.534029 542.455097 357.259671 532.168239 344.585463 532.168239zM760.659459 532.168239c-1.037435 0-2.049872 0.087495-3.049809 0.224986L627.230298 532.393225c-0.999938-0.137491-2.012374-0.224986-3.049809-0.224986-12.674208 0-22.948566 10.274358-22.948566 22.948566 0 12.674208 10.274358 22.948566 22.948566 22.948566 0.949941 0 1.874883-0.074995 2.799825-0.187488l37.335167 0 0 164.939691c-0.024998 0.499969-0.074995 0.999938-0.074995 1.499906 0 14.87407 12.061746 26.923317 26.923317 26.923317 14.87407 0 26.923317-12.061746 26.923317-26.923317 0-0.074995-0.012499-0.149991-0.012499-0.224986l0.012499 0L718.08712 577.890382l39.772514 0c0.924942 0.112493 1.849884 0.187488 2.799825 0.187488 12.674208 0 22.948566-10.274358 22.948566-22.948566C783.608024 542.455097 773.333667 532.168239 760.659459 532.168239zM505.750391 648.885945l53.684145-75.007812c0.449972-0.574964 0.862446-1.162427 1.262421-1.774889 0.299981-0.412474 0.549966-0.824948 0.762452-1.249922 1.799888-3.249797 2.824823-6.974564 2.824823-10.961815 0-12.524217-10.149366-22.673583-22.673583-22.673583-8.049497 0-15.111556 4.212237-19.136304 10.549341l-44.95969 62.971064-46.272108-62.546091c-0.112493-0.149991-0.249984-0.287482-0.362477-0.437473-4.024748-6.324605-11.074308-10.536841-19.123805-10.536841-12.524217 0-22.673583 10.149366-22.673583 22.673583 0 6.212112 2.499844 11.83676 6.549591 15.936504l54.346603 73.482907-54.55909 76.420224c-1.512405 1.574902-2.799825 3.374789-3.812262 5.337166-0.687457 1.024936-1.149928 2.07487-1.324917 3.124805-0.762452 2.274858-1.199925 4.712205-1.199925 7.249547 0 12.524217 10.149366 22.673583 22.673583 22.673583 8.299481 0 15.536529-4.47472 19.486282-11.124305l46.934567-65.570902 46.747078 63.19605c3.874758 6.962065 11.286795 11.67427 19.823761 11.67427 12.524217 0 22.673583-10.149366 22.673583-22.673583 0-5.549653-1.999875-10.624336-5.312168-14.574089L505.750391 648.885945z" p-id="5890"></path></svg>