<?xml version="1.0" standalone="no"?><!DOCTYPE svg PUBLIC "-//W3C//DTD SVG 1.1//EN" "http://www.w3.org/Graphics/SVG/1.1/DTD/svg11.dtd"><svg t="1494986814884" class="icon" style="" viewBox="0 0 1024 1024" version="1.1" xmlns="http://www.w3.org/2000/svg" p-id="4488" xmlns:xlink="http://www.w3.org/1999/xlink" width="32" height="32"><defs><style type="text/css"></style></defs><path d="M0 914.944L577.024 1024V0L0 109.056m128.512 227.328l48.64 210.944 10.752 58.88 10.752-57.344 41.472-212.48h81.408l44.032 210.944 11.264 58.88 11.264-56.32 49.152-213.504h78.336l-103.424 368.64H337.408l-44.544-215.552-12.8-71.168-12.8 71.168-44.544 215.552h-71.68l-104.448-368.64h81.92z" fill="#355596" p-id="4489"></path><path d="M625.664 133.12v67.072h309.76v43.008h-309.76v69.632h309.76v43.008h-309.76v68.608h309.76v43.008h-309.76v68.608h309.76v43.008h-309.76v68.608h309.76v43.008h-309.76v68.096h309.76v43.008h-309.76V890.88H1024V133.12h-398.336z" fill="#333333" p-id="4490"></path></svg>